# xmcd CD database file
#
# Track frame offsets:
#	150
#	20509
#	40239
#	57903
#	73910
#	89952
#	107707
#	124141
#	149486
#	166858
#	185817
#	199397
#	215861
#	234166
#	249985
#	267615
#	284872
#
# Disc length: 4003 seconds
#
# Revision: 11
# Processed by: cddbd v1.5.2PL0 Copyright (c) Steve Scherf et al.
# Submitted via: CDex 1.70beta2
#
DISCID=1d0fa111
DTITLE=Various Artist - Unknown CD for MusicBrainz and FreeDB
DYEAR=2002
DGENRE=Country
TTITLE0=Brooks and Dunn - Only in America
TTITLE1=Montgomery Gentry - She Couldn't Change Me
TTITLE2=Lonestar - With Me
TTITLE3=Dixie Chicks - Without You
TTITLE4=Trick Pony - On A Night Like This
TTITLE5=Kenny Chesney - I Lost It
TTITLE6=Tammy Cochran - Angels In Waiting
TTITLE7=Sara Evans - Born To Fly
TTITLE8=Blake Shelton - Austin
TTITLE9=Billy Gilman - One Voice
TTITLE10=Keith Urban - Where The Blacktop Ends
TTITLE11=Diamond Rio - One More Day
TTITLE12=Travis Tritt - It's A Great Day To Be Alive
TTITLE13=Dwight Yoakam - I Want You To Want Me
TTITLE14=John Michael Montgomery - The Little Girl
TTITLE15=Kenny Rogers - Buy Me A Rose
TTITLE16=Martina McBride - There You Are
EXTD=YEAR: 2002
EXTT0=
EXTT1=
EXTT2=
EXTT3=
EXTT4=
EXTT5=
EXTT6=
EXTT7=
EXTT8=
EXTT9=
EXTT10=
EXTT11=
EXTT12=
EXTT13=
EXTT14=
EXTT15=
EXTT16=
PLAYORDER=
